<svg width="1600" height="1080" viewBox="0 0 1600 1080" fill="none" xmlns="http://www.w3.org/2000/svg">
  <defs>
    <linearGradient id="bg" x1="140" y1="96" x2="1460" y2="980" gradientUnits="userSpaceOnUse">
      <stop stop-color="#121721"/>
      <stop offset="1" stop-color="#080B10"/>
    </linearGradient>
    <linearGradient id="panel" x1="390" y1="176" x2="1190" y2="886" gradientUnits="userSpaceOnUse">
      <stop stop-color="rgba(22,26,34,0.96)"/>
      <stop offset="1" stop-color="rgba(14,17,22,0.96)"/>
    </linearGradient>
    <filter id="shadow" x="300" y="112" width="1000" height="856" filterUnits="userSpaceOnUse" color-interpolation-filters="sRGB">
      <feDropShadow dx="0" dy="30" stdDeviation="36" flood-color="#000000" flood-opacity="0.38"/>
    </filter>
    <filter id="glass" x="0" y="0" width="1600" height="1080" filterUnits="userSpaceOnUse" color-interpolation-filters="sRGB">
      <feGaussianBlur stdDeviation="0.5"/>
    </filter>
  </defs>

  <rect width="1600" height="1080" fill="url(#bg)"/>
  <g opacity="0.55">
    <circle cx="260" cy="210" r="180" fill="#1E2635"/>
    <circle cx="1360" cy="168" r="210" fill="#121A28"/>
    <circle cx="1270" cy="926" r="244" fill="#101721"/>
    <circle cx="242" cy="892" r="220" fill="#171D29"/>
  </g>
  <g opacity="0.18" filter="url(#glass)">
    <path d="M0 772C245 668 457 630 662 674C911 728 1109 946 1600 870V1080H0V772Z" fill="#7C92FF"/>
  </g>

  <g filter="url(#shadow)">
    <rect x="350" y="162" width="900" height="756" rx="28" fill="#0E1116"/>
    <rect x="350.5" y="162.5" width="899" height="755" rx="27.5" stroke="rgba(255,255,255,0.08)"/>
    <rect x="350" y="162" width="900" height="756" rx="28" fill="url(#panel)"/>
  </g>

  <rect x="380" y="194" width="840" height="146" rx="16" fill="rgba(255,255,255,0.02)"/>
  <line x1="392" y1="338.5" x2="1208" y2="338.5" stroke="rgba(255,255,255,0.08)"/>

  <circle cx="418" cy="232" r="14" fill="#7C92FF"/>
  <text x="418" y="237" text-anchor="middle" fill="white" font-size="13" font-family="SF Pro Display, Inter, Arial, sans-serif" font-weight="700">V</text>
  <text x="446" y="238" fill="rgba(237,241,247,0.88)" font-size="20" font-family="SF Pro Display, Inter, Arial, sans-serif" font-weight="600">tmux</text>

  <rect x="1114" y="214" width="76" height="30" rx="15" fill="rgba(255,255,255,0.08)"/>
  <text x="1152" y="234" text-anchor="middle" fill="rgba(237,241,247,0.74)" font-size="14" font-family="SF Mono, Menlo, monospace">Ctrl+/</text>

  <text x="416" y="296" fill="rgba(237,241,247,0.38)" font-size="24" font-family="SF Pro Display, Inter, Arial, sans-serif">⌕</text>
  <text x="452" y="296" fill="#F5F7FB" font-size="44" font-family="SF Pro Display, Inter, Arial, sans-serif" font-weight="500">pane</text>

  <text x="416" y="324" fill="rgba(237,241,247,0.62)" font-size="14" font-family="SF Pro Display, Inter, Arial, sans-serif">Inside cheat sheet</text>
  <text x="709" y="324" fill="rgba(237,241,247,0.62)" font-size="14" font-family="SF Pro Display, Inter, Arial, sans-serif">Enter open</text>
  <text x="814" y="324" fill="rgba(237,241,247,0.62)" font-size="14" font-family="SF Pro Display, Inter, Arial, sans-serif">Tab move</text>
  <text x="906" y="324" fill="rgba(237,241,247,0.62)" font-size="14" font-family="SF Pro Display, Inter, Arial, sans-serif">Esc back</text>

  <text x="404" y="380" fill="rgba(237,241,247,0.62)" font-size="14" font-family="SF Pro Display, Inter, Arial, sans-serif" font-weight="600">Commands</text>
  <text x="1116" y="380" fill="rgba(237,241,247,0.62)" font-size="14" font-family="SF Pro Display, Inter, Arial, sans-serif">10 commands</text>

  <g>
    <rect x="392" y="408" width="816" height="82" rx="14" fill="rgba(255,255,255,0.08)"/>
    <text x="416" y="456" fill="rgba(237,241,247,0.52)" font-size="16" font-family="SF Pro Display, Inter, Arial, sans-serif">⌘</text>
    <text x="450" y="443" fill="#F5F7FB" font-size="19" font-family="SF Pro Display, Inter, Arial, sans-serif" font-weight="600">Move Pane Left</text>
    <text x="450" y="467" fill="rgba(237,241,247,0.62)" font-size="14" font-family="SF Pro Display, Inter, Arial, sans-serif">Focus the pane on the left</text>
    <rect x="450" y="475" width="116" height="24" rx="6" fill="rgba(255,255,255,0.08)"/>
    <text x="508" y="491" text-anchor="middle" fill="rgba(237,241,247,0.82)" font-size="12" font-family="SF Mono, Menlo, monospace">select-pane -L</text>
    <rect x="1016" y="427" width="54" height="30" rx="8" fill="rgba(255,255,255,0.08)"/>
    <rect x="1078" y="427" width="44" height="30" rx="8" fill="rgba(255,255,255,0.08)"/>
    <rect x="1130" y="427" width="56" height="30" rx="8" fill="rgba(255,255,255,0.08)"/>
    <text x="1043" y="447" text-anchor="middle" fill="#F5F7FB" font-size="14" font-family="SF Mono, Menlo, monospace">Ctrl</text>
    <text x="1100" y="447" text-anchor="middle" fill="#F5F7FB" font-size="14" font-family="SF Mono, Menlo, monospace">B</text>
    <text x="1158" y="447" text-anchor="middle" fill="#F5F7FB" font-size="14" font-family="SF Mono, Menlo, monospace">Left</text>
  </g>

  <g opacity="0.98">
    <rect x="392" y="498" width="816" height="82" rx="14" fill="transparent"/>
    <text x="416" y="546" fill="rgba(237,241,247,0.52)" font-size="16" font-family="SF Pro Display, Inter, Arial, sans-serif">⌘</text>
    <text x="450" y="533" fill="#F5F7FB" font-size="19" font-family="SF Pro Display, Inter, Arial, sans-serif" font-weight="600">Move Pane Right</text>
    <text x="450" y="557" fill="rgba(237,241,247,0.62)" font-size="14" font-family="SF Pro Display, Inter, Arial, sans-serif">Focus the pane on the right</text>
    <rect x="450" y="565" width="116" height="24" rx="6" fill="rgba(255,255,255,0.08)"/>
    <text x="508" y="581" text-anchor="middle" fill="rgba(237,241,247,0.82)" font-size="12" font-family="SF Mono, Menlo, monospace">select-pane -R</text>
    <rect x="1016" y="517" width="54" height="30" rx="8" fill="rgba(255,255,255,0.08)"/>
    <rect x="1078" y="517" width="44" height="30" rx="8" fill="rgba(255,255,255,0.08)"/>
    <rect x="1130" y="517" width="66" height="30" rx="8" fill="rgba(255,255,255,0.08)"/>
    <text x="1043" y="537" text-anchor="middle" fill="#F5F7FB" font-size="14" font-family="SF Mono, Menlo, monospace">Ctrl</text>
    <text x="1100" y="537" text-anchor="middle" fill="#F5F7FB" font-size="14" font-family="SF Mono, Menlo, monospace">B</text>
    <text x="1163" y="537" text-anchor="middle" fill="#F5F7FB" font-size="14" font-family="SF Mono, Menlo, monospace">Right</text>
  </g>

  <g opacity="0.98">
    <rect x="392" y="588" width="816" height="82" rx="14" fill="transparent"/>
    <text x="416" y="636" fill="rgba(237,241,247,0.52)" font-size="16" font-family="SF Pro Display, Inter, Arial, sans-serif">⌘</text>
    <text x="450" y="623" fill="#F5F7FB" font-size="19" font-family="SF Pro Display, Inter, Arial, sans-serif" font-weight="600">Next Pane</text>
    <text x="450" y="647" fill="rgba(237,241,247,0.62)" font-size="14" font-family="SF Pro Display, Inter, Arial, sans-serif">Switch to the next tmux pane</text>
    <rect x="450" y="655" width="112" height="24" rx="6" fill="rgba(255,255,255,0.08)"/>
    <text x="506" y="671" text-anchor="middle" fill="rgba(237,241,247,0.82)" font-size="12" font-family="SF Mono, Menlo, monospace">select-pane -t :.+</text>
    <rect x="1046" y="607" width="54" height="30" rx="8" fill="rgba(255,255,255,0.08)"/>
    <rect x="1108" y="607" width="44" height="30" rx="8" fill="rgba(255,255,255,0.08)"/>
    <rect x="1160" y="607" width="38" height="30" rx="8" fill="rgba(255,255,255,0.08)"/>
    <text x="1073" y="627" text-anchor="middle" fill="#F5F7FB" font-size="14" font-family="SF Mono, Menlo, monospace">Ctrl</text>
    <text x="1130" y="627" text-anchor="middle" fill="#F5F7FB" font-size="14" font-family="SF Mono, Menlo, monospace">B</text>
    <text x="1179" y="627" text-anchor="middle" fill="#F5F7FB" font-size="14" font-family="SF Mono, Menlo, monospace">o</text>
  </g>

  <g opacity="0.98">
    <rect x="392" y="678" width="816" height="82" rx="14" fill="transparent"/>
    <text x="416" y="726" fill="rgba(237,241,247,0.52)" font-size="16" font-family="SF Pro Display, Inter, Arial, sans-serif">⌘</text>
    <text x="450" y="713" fill="#F5F7FB" font-size="19" font-family="SF Pro Display, Inter, Arial, sans-serif" font-weight="600">Toggle Pane Zoom</text>
    <text x="450" y="737" fill="rgba(237,241,247,0.62)" font-size="14" font-family="SF Pro Display, Inter, Arial, sans-serif">Zoom or unzoom the current pane</text>
    <rect x="450" y="745" width="104" height="24" rx="6" fill="rgba(255,255,255,0.08)"/>
    <text x="502" y="761" text-anchor="middle" fill="rgba(237,241,247,0.82)" font-size="12" font-family="SF Mono, Menlo, monospace">resize-pane -Z</text>
    <rect x="1046" y="697" width="54" height="30" rx="8" fill="rgba(255,255,255,0.08)"/>
    <rect x="1108" y="697" width="44" height="30" rx="8" fill="rgba(255,255,255,0.08)"/>
    <rect x="1160" y="697" width="38" height="30" rx="8" fill="rgba(255,255,255,0.08)"/>
    <text x="1073" y="717" text-anchor="middle" fill="#F5F7FB" font-size="14" font-family="SF Mono, Menlo, monospace">Ctrl</text>
    <text x="1130" y="717" text-anchor="middle" fill="#F5F7FB" font-size="14" font-family="SF Mono, Menlo, monospace">B</text>
    <text x="1179" y="717" text-anchor="middle" fill="#F5F7FB" font-size="14" font-family="SF Mono, Menlo, monospace">z</text>
  </g>

  <text x="392" y="860" fill="rgba(237,241,247,0.62)" font-size="14" font-family="SF Pro Display, Inter, Arial, sans-serif">~/Library/Application Support/com.vaise.app/cheatsheets</text>
  <text x="1055" y="860" fill="rgba(237,241,247,0.62)" font-size="14" font-family="SF Pro Display, Inter, Arial, sans-serif">Ctrl+/ focus search</text>
</svg>
